<?xml version="1.0" standalone="no"?>
<!DOCTYPE svg PUBLIC "-//W3C//DTD SVG 20010904//EN"
 "http://www.w3.org/TR/2001/REC-SVG-20010904/DTD/svg10.dtd">
<svg version="1.0" xmlns="http://www.w3.org/2000/svg"
 width="237.000000pt" height="237.000000pt" viewBox="0 0 237.000000 237.000000"
 preserveAspectRatio="xMidYMid meet">
<metadata>
Created by potrace 1.15, written by Peter Selinger 2001-2017
</metadata>
<g transform="translate(0.000000,237.000000) scale(0.100000,-0.100000)"
fill="#000000" stroke="none">
<path d="M10 2366 c0 -2 7 -17 15 -32 8 -16 15 -25 15 -21 0 5 11 -4 24 -20
23 -27 31 -63 14 -63 -4 0 -8 5 -8 11 0 6 -7 17 -15 25 -8 9 -15 13 -15 11 0
-11 54 -165 66 -189 14 -26 30 -71 153 -411 33 -92 63 -173 67 -179 4 -7 9
-22 10 -34 1 -11 12 -38 23 -60 12 -21 21 -43 21 -49 0 -12 54 -153 62 -160 6
-6 38 120 38 152 0 38 -102 428 -114 435 -8 5 -7 8 3 8 10 0 12 16 9 70 -3 57
-8 73 -24 84 -15 11 -21 26 -22 58 0 24 -16 84 -35 133 -19 50 -47 123 -62
163 l-27 72 -99 0 c-54 0 -99 -2 -99 -4z"/>
<path d="M530 2348 c1 -28 40 -75 73 -87 33 -13 101 -97 93 -116 -3 -8 6 -29
22 -48 15 -17 47 -58 70 -90 24 -32 47 -55 53 -52 14 9 11 32 -5 38 -8 3 -12
14 -9 25 3 14 -3 22 -26 32 -36 14 -37 18 -15 48 13 18 19 21 30 11 8 -6 14
-19 14 -29 0 -21 46 -45 53 -27 2 7 1 41 -3 75 -4 44 -2 69 6 80 19 26 36 2
40 -58 3 -50 29 -94 42 -73 4 5 22 18 40 28 17 11 32 22 32 25 0 5 -67 138
-104 208 l-17 32 -150 0 c-145 0 -149 -1 -139 -19 5 -11 15 -32 21 -48 9 -24
4 -22 -36 20 -51 51 -85 62 -85 25z"/>
<path d="M998 2313 c77 -160 67 -154 235 -145 l38 2 -6 38 c-4 20 -16 65 -28
100 l-21 62 -122 0 -123 0 27 -57z"/>
<path d="M1300 2358 c0 -27 45 -168 62 -194 4 -6 43 -23 87 -38 66 -23 83 -25
94 -14 25 23 -18 137 -85 229 -20 27 -26 29 -90 29 -48 0 -68 -4 -68 -12z"/>
<path d="M1650 2296 c27 -41 58 -81 68 -88 11 -7 36 -48 56 -90 21 -42 46 -84
57 -94 10 -9 19 -23 19 -31 0 -14 28 -17 46 -5 7 4 17 27 24 52 6 25 21 52 32
61 19 15 20 20 9 64 -17 69 -39 117 -50 111 -5 -3 -23 8 -41 24 -18 17 -36 30
-41 30 -5 0 -9 5 -9 11 0 7 7 8 18 4 59 -24 73 -24 81 -2 8 21 6 22 -63 25
-58 3 -73 0 -81 -14 -35 -58 -37 -58 -82 -20 -24 22 -52 36 -67 36 -27 0 -26
0 24 -74z"/>
<path d="M1954 2333 c9 -46 33 -155 47 -206 6 -21 15 -84 20 -140 5 -56 12
-117 15 -134 5 -26 3 -33 -10 -33 -9 0 -16 -6 -16 -14 0 -8 -7 -22 -16 -31
-13 -13 -14 -21 -6 -38 30 -62 62 -141 62 -152 0 -7 9 -23 19 -37 13 -16 17
-29 10 -39 -7 -12 -9 -12 -9 1 0 9 -13 30 -30 48 -16 18 -30 38 -30 43 0 6 -4
8 -9 5 -9 -6 -1 -51 18 -100 6 -16 14 -54 17 -85 3 -31 9 -72 14 -91 5 -19 11
-46 12 -60 2 -19 8 -24 26 -23 12 2 22 -1 22 -6 0 -4 12 -20 26 -34 26 -26 29
-64 5 -59 -70 15 -98 13 -133 -9 -21 -13 -43 -36 -50 -51 -7 -15 -16 -24 -20
-22 -4 3 -8 1 -8 -5 0 -5 5 -11 12 -13 6 -2 8 -9 4 -16 -8 -14 -35 6 -31 23 1
5 0 7 -2 3 -3 -5 -13 -8 -23 -8 -10 0 -22 -5 -25 -10 -3 -5 -15 -10 -26 -10
-12 0 -19 -7 -19 -19 0 -14 -5 -18 -20 -14 -12 3 -22 -1 -26 -11 -3 -9 -11
-13 -17 -9 -7 4 -8 0 -4 -11 5 -14 3 -17 -8 -12 -10 3 -15 -1 -15 -12 -1 -15
-2 -15 -13 -1 -15 20 -60 31 -92 23 -24 -6 -24 -7 -8 -37 9 -17 22 -58 30 -90
7 -33 22 -72 33 -88 11 -15 27 -44 35 -63 13 -30 20 -36 45 -36 37 0 41 -25 6
-34 l-25 -6 38 -83 c21 -45 48 -104 60 -132 13 -27 29 -63 36 -80 7 -16 30
-81 51 -143 20 -61 40 -112 44 -112 8 0 16 57 25 171 3 36 9 79 13 95 11 38 8
74 -7 102 -7 13 -10 26 -7 30 3 3 6 0 6 -6 0 -26 48 11 55 42 4 17 9 38 11 46
9 31 7 101 -2 110 -6 6 -23 6 -45 0 -19 -5 -46 -8 -59 -5 -33 6 -60 -3 -60
-21 0 -27 -15 -14 -27 23 -9 29 -9 40 0 45 18 12 27 9 27 -7 0 -20 15 -19 85
5 69 24 65 24 65 5 0 -8 4 -15 10 -15 5 0 13 -12 16 -27 6 -24 8 -25 20 -8 18
24 7 74 -24 107 -20 22 -28 25 -39 16 -18 -14 -36 7 -29 35 2 9 0 15 -4 12 -5
-3 -12 4 -15 16 -4 11 -29 46 -57 76 -34 38 -47 58 -39 66 7 7 18 5 35 -7 25
-16 26 -16 23 6 -4 42 27 27 33 -15 3 -21 10 -38 15 -39 6 0 15 -8 22 -17 11
-14 12 -14 13 2 0 9 2 17 4 17 10 0 104 -55 122 -71 11 -10 23 -19 27 -19 13
0 58 82 72 133 l15 52 -6 -55 c-4 -30 -7 -62 -8 -70 -1 -9 -5 -20 -8 -26 -4
-5 -7 -23 -8 -40 -1 -35 -7 -89 -9 -89 -1 0 -4 -13 -6 -28 -6 -48 89 -187 128
-187 18 0 19 5 13 57 -7 63 -12 68 -73 84 -42 11 -49 21 -37 52 6 16 50 10 92
-12 l22 -12 0 143 c0 121 -2 139 -13 123 -19 -25 -37 -11 -37 29 0 22 8 40 25
56 25 23 25 24 25 217 0 116 -4 193 -10 193 -5 0 -12 -17 -15 -37 -12 -70 -23
-83 -26 -28 -1 50 -1 54 8 88 5 15 -3 17 -63 17 -38 0 -75 4 -83 9 -14 9 -25
61 -13 61 15 0 34 -18 29 -26 -3 -5 27 -7 66 -4 l72 5 13 90 c7 50 15 237 18
418 l7 327 -143 0 c-132 0 -142 -1 -135 -17 5 -10 10 -38 11 -63 2 -24 11 -60
20 -78 10 -21 12 -38 7 -43 -10 -10 -39 65 -35 88 2 6 -2 14 -8 18 -5 3 -10
18 -10 33 0 40 -31 62 -86 62 l-46 0 6 -37z m183 -215 c-3 -8 -6 -5 -6 6 -1
11 2 17 5 13 3 -3 4 -12 1 -19z m208 -48 c3 -5 1 -10 -4 -10 -6 0 -11 5 -11
10 0 6 2 10 4 10 3 0 8 -4 11 -10z m-234 -373 c-8 -8 -6 -16 6 -29 21 -23 11
-33 -16 -16 -41 25 -40 89 1 67 14 -8 17 -14 9 -22z m69 -87 c0 -5 -9 -10 -21
-10 -11 0 -17 5 -14 10 3 6 13 10 21 10 8 0 14 -4 14 -10z m-65 -40 c-3 -5
-10 -10 -16 -10 -5 0 -9 5 -9 10 0 6 7 10 16 10 8 0 12 -4 9 -10z m204 -272
c-5 -18 -9 -46 -9 -63 0 -21 -3 -26 -9 -16 -7 11 -13 10 -33 -3 -41 -27 -40
-6 2 43 22 26 40 53 40 59 0 7 4 12 9 12 6 0 6 -12 0 -32z m-99 -174 c0 -19
-16 -18 -24 2 -11 27 -7 37 9 24 8 -7 15 -19 15 -26z m-235 -55 c11 -17 -1
-21 -15 -4 -8 9 -8 15 -2 15 6 0 14 -5 17 -11z m-111 -196 c16 6 76 -43 76
-62 0 -6 5 -11 10 -11 6 0 10 -5 10 -11 0 -6 -8 -7 -22 -3 -13 5 -42 7 -65 6
-41 -3 -49 3 -44 32 1 5 -3 12 -10 16 -6 5 -8 16 -4 29 5 18 10 20 21 10 7 -6
20 -9 28 -6z m86 -338 c0 -2 -7 -1 -17 2 -12 5 -14 3 -8 -8 8 -12 6 -12 -8 0
-22 18 -11 34 14 21 10 -6 19 -13 19 -15z m0 -47 c0 -16 -3 -19 -11 -11 -6 6
-8 16 -5 22 11 17 16 13 16 -11z"/>
<path d="M400 2335 c0 -17 33 -78 37 -68 2 6 -3 25 -12 42 -14 28 -25 39 -25
26z"/>
<path d="M1586 2235 c4 -11 17 -46 29 -77 13 -32 21 -66 18 -78 -7 -26 22 -70
47 -70 10 0 33 -13 51 -30 18 -16 36 -27 40 -24 10 6 -12 59 -34 85 -10 11
-17 23 -17 28 0 5 -7 14 -15 21 -21 18 -11 24 15 10 19 -10 18 -6 -10 35 -17
25 -35 44 -38 41 -3 -4 0 -12 6 -18 7 -7 12 -17 12 -22 -1 -14 -39 35 -40 49
0 6 -9 19 -21 28 -11 10 -19 24 -16 30 3 7 -3 13 -14 13 -14 0 -17 -5 -13 -21z
m74 -155 c0 -5 -2 -10 -4 -10 -3 0 -8 5 -11 10 -3 6 -1 10 4 10 6 0 11 -4 11
-10z"/>
<path d="M465 2198 c23 -49 26 -81 5 -48 -8 12 -10 11 -10 -5 -1 -19 -2 -19
-20 3 l-19 23 1 -42 c0 -31 8 -49 30 -74 16 -18 25 -36 19 -39 -5 -3 -11 4
-14 16 -4 12 -9 19 -12 16 -7 -7 19 -64 40 -88 14 -16 55 -126 55 -147 0 -6
11 -24 25 -39 14 -15 25 -34 25 -43 -1 -10 -6 -6 -16 12 -8 15 -17 27 -19 27
-5 0 21 -75 34 -98 10 -16 10 -16 11 2 0 10 8 26 18 35 28 25 60 75 68 106 5
20 4 26 -5 21 -21 -14 -51 4 -51 31 0 18 4 24 15 19 8 -3 15 -1 15 5 0 21 -66
135 -97 168 -22 24 -33 45 -33 66 0 34 -35 95 -42 74 -3 -8 -11 1 -19 19 -7
18 -17 32 -21 32 -4 0 4 -23 17 -52z m45 -29 c0 -6 -4 -7 -10 -4 -5 3 -10 11
-10 16 0 6 5 7 10 4 6 -3 10 -11 10 -16z m23 -109 l6 -25 -21 25 c-14 17 -22
21 -25 12 -4 -10 -9 -8 -19 5 -15 21 -19 47 -5 38 5 -3 13 -1 16 5 8 13 40
-26 48 -60z m13 -62 c0 -18 4 -42 9 -52 14 -33 -12 -9 -29 26 -20 39 -20 49
-1 42 8 -4 15 -1 15 5 0 6 1 11 3 11 2 0 3 -15 3 -32z m34 -128 c0 -5 -7 -10
-15 -10 -8 0 -15 5 -15 10 0 6 7 10 15 10 8 0 15 -4 15 -10z m50 -54 c0 -8 3
-23 6 -33 5 -12 4 -15 -3 -8 -16 15 -26 55 -14 55 6 0 11 -6 11 -14z"/>
<path d="M530 2197 c0 -18 31 -67 50 -77 11 -6 20 -7 20 -3 0 11 -69 90 -70
80z"/>
<path d="M600 2069 c0 -25 50 -139 70 -159 3 -3 11 -17 19 -32 19 -37 40 -42
67 -17 21 20 22 24 10 48 -8 14 -26 37 -40 50 -20 19 -28 21 -39 13 -11 -10
-16 -4 -27 31 -26 90 -60 127 -60 66z"/>
<path d="M1 1881 c-1 -85 1 -97 24 -127 55 -72 68 -77 106 -41 18 16 24 31 23
57 -3 50 -20 130 -31 141 -13 13 -64 -38 -57 -56 4 -8 2 -15 -4 -15 -5 0 -21
30 -35 68 l-26 67 0 -94z"/>
<path d="M1810 1957 c0 -8 6 -20 14 -26 12 -10 13 -8 9 9 -7 25 -23 37 -23 17z"/>
<path d="M1950 1880 c0 -23 10 -26 28 -8 18 18 15 28 -8 28 -13 0 -20 -7 -20
-20z"/>
<path d="M4 1696 c8 -32 65 -120 73 -112 3 2 -7 22 -21 43 -14 20 -26 42 -26
48 0 5 -8 19 -17 30 -15 19 -15 19 -9 -9z"/>
<path d="M462 1642 c9 -77 32 -170 47 -185 11 -11 31 29 31 59 0 18 -69 182
-79 189 -4 2 -4 -26 1 -63z"/>
<path d="M100 1655 c-3 -25 -1 -79 6 -130 l5 -40 -55 60 -55 60 -1 -81 c0
-109 20 -151 94 -192 51 -29 55 -34 66 -84 11 -52 29 -202 30 -245 0 -12 -7
-29 -16 -38 -24 -23 -11 -163 29 -310 17 -64 25 -62 32 11 10 107 16 131 27
111 16 -30 12 -157 -8 -237 -3 -14 -10 -45 -14 -70 -5 -25 -13 -64 -18 -87 -7
-28 -6 -45 1 -52 18 -18 27 -13 27 17 0 15 3 37 6 49 6 21 7 21 40 6 18 -9 31
-20 29 -24 -7 -10 23 -32 35 -24 14 9 13 -21 -2 -46 -13 -21 -5 -32 42 -59 27
-15 5 -20 -24 -5 -55 29 -62 16 -16 -25 25 -22 48 -40 52 -40 4 0 12 -9 18
-20 9 -16 7 -24 -5 -36 -8 -8 -15 -11 -15 -5 0 6 -6 11 -14 11 -9 0 -3 -11 16
-30 16 -16 33 -30 37 -30 4 0 14 -15 22 -32 14 -32 16 -33 84 -36 l70 -3 -28
27 c-42 38 -24 42 27 6 39 -28 76 -41 76 -27 0 2 -11 30 -25 61 -18 41 -29 55
-40 50 -8 -3 -15 -2 -15 3 0 4 -20 19 -45 32 -25 13 -47 29 -49 36 -3 6 16 -1
42 -16 60 -35 82 -43 82 -30 0 12 -105 318 -172 499 -27 74 -78 216 -113 315
-64 182 -94 255 -117 287 -17 24 -2 35 20 15 10 -10 23 -17 28 -17 5 0 4 4 -1
8 -22 15 -77 93 -71 100 4 3 11 1 15 -7 7 -10 9 -10 14 2 3 8 -3 23 -13 32
-11 10 -27 40 -36 69 -9 28 -20 55 -25 61 -5 5 -9 23 -9 40 0 23 -8 37 -29 53
-17 12 -31 34 -34 49 -3 20 -5 23 -7 8z"/>
<path d="M2362 1540 c0 -14 2 -19 5 -12 2 6 2 18 0 25 -3 6 -5 1 -5 -13z"/>
<path d="M260 1316 c0 -2 8 -10 18 -17 15 -13 16 -12 3 4 -13 16 -21 21 -21
13z"/>
<path d="M308 1199 c32 -50 39 -68 53 -134 12 -59 100 -315 124 -361 6 -13 15
-21 19 -17 4 4 4 0 0 -10 -3 -10 -1 -17 6 -17 7 0 9 -8 5 -19 -5 -17 8 -54 25
-71 14 -14 32 -59 26 -68 -3 -5 1 -13 10 -16 8 -3 12 -11 9 -16 -4 -6 -1 -17
5 -25 6 -8 9 -19 5 -24 -3 -6 2 -22 11 -36 9 -14 13 -25 9 -25 -4 0 -2 -7 5
-15 7 -8 10 -24 7 -35 -3 -11 -1 -23 4 -26 5 -3 9 -16 9 -30 0 -13 5 -24 10
-24 6 0 10 -7 10 -15 0 -14 41 -163 55 -196 5 -13 29 -16 150 -18 80 -1 145 2
145 6 0 4 -9 53 -20 108 -12 55 -25 134 -31 175 -10 69 -51 170 -69 170 -4 0
-13 -7 -20 -15 -13 -16 -39 -20 -41 -7 0 4 -3 18 -6 32 -2 14 -6 50 -7 80 -2
43 -11 69 -40 120 -21 36 -55 100 -77 142 -41 81 -72 118 -100 118 -9 0 -22 7
-29 15 -7 8 -20 14 -29 13 -9 -2 -15 3 -14 10 2 7 -8 12 -25 12 -20 0 -33 9
-51 38 -14 20 -26 31 -29 24 -7 -23 -21 -12 -19 16 1 18 -2 26 -11 24 -8 -1
-11 2 -8 7 4 5 -12 37 -36 71 -44 65 -76 96 -40 39z m250 -404 c-3 -3 -9 2
-12 12 -6 14 -5 15 5 6 7 -7 10 -15 7 -18z m61 -170 c0 -5 -6 -1 -14 9 -8 11
-15 24 -15 30 0 5 7 1 15 -10 8 -10 14 -23 14 -29z m-56 -30 c-7 -21 -12 -19
-10 4 0 11 5 18 9 15 4 -3 5 -11 1 -19z m67 -7 c0 -19 -2 -20 -10 -8 -13 19
-13 30 0 30 6 0 10 -10 10 -22z m28 -103 c-3 -3 -9 2 -12 12 -6 14 -5 15 5 6
7 -7 10 -15 7 -18z m72 -190 c0 -5 -5 -3 -10 5 -5 8 -10 20 -10 25 0 6 5 3 10
-5 5 -8 10 -19 10 -25z m33 -77 c3 -18 8 -43 12 -55 4 -13 3 -23 -3 -23 -5 0
-12 15 -16 33 -3 17 -9 45 -12 61 -5 19 -3 27 3 23 6 -4 13 -21 16 -39z m55
-147 c9 -26 9 -37 1 -45 -9 -8 -10 -7 -4 2 4 8 1 18 -8 25 -8 7 -17 27 -21 45
-5 27 -3 31 7 20 7 -7 19 -28 25 -47z"/>
<path d="M100 1180 c0 -24 23 -100 30 -100 11 0 31 83 22 91 -15 14 -52 20
-52 9z"/>
<path d="M156 1033 c-11 -11 -7 -63 5 -63 6 0 9 9 6 20 -3 11 -1 18 4 14 5 -3
9 2 9 10 0 17 -14 29 -24 19z"/>
<path d="M1 765 l-1 -259 52 -48 c29 -26 56 -48 60 -48 4 0 2 15 -4 33 -5 17
-13 50 -17 72 -4 22 -23 64 -41 93 -33 51 -35 77 -5 52 20 -16 20 -4 0 109 -8
47 -21 124 -29 171 -14 85 -14 84 -15 -175z"/>
<path d="M1570 928 c1 -22 21 -58 33 -58 2 0 0 18 -5 40 -11 43 -28 54 -28 18z"/>
<path d="M90 850 c0 -5 5 -10 11 -10 5 0 7 5 4 10 -3 6 -8 10 -11 10 -2 0 -4
-4 -4 -10z"/>
<path d="M941 831 c14 -41 37 -60 50 -40 14 22 11 37 -13 53 -36 26 -49 21
-37 -13z"/>
<path d="M1021 851 c-14 -9 -8 -58 10 -91 5 -8 19 -37 31 -65 18 -41 22 -46
26 -27 5 33 22 27 22 -9 0 -20 -4 -28 -12 -23 -8 5 -9 0 -5 -16 l6 -22 -25 23
-24 22 0 -22 c0 -12 7 -38 16 -59 14 -33 17 -35 24 -17 7 16 9 12 9 -17 1 -20
5 -39 11 -43 5 -3 7 -12 4 -19 -3 -8 -1 -17 5 -21 13 -8 14 10 2 53 -5 17 -8
32 -6 32 7 0 63 -129 70 -161 4 -19 16 -51 27 -72 28 -56 39 -87 29 -87 -10 0
-30 38 -36 68 -4 24 -44 86 -51 79 -2 -2 25 -71 61 -152 71 -162 69 -155 57
-155 -5 0 -17 17 -26 39 -21 45 -62 106 -51 76 4 -11 9 -29 11 -40 2 -11 13
-38 24 -60 11 -21 20 -45 20 -52 0 -7 9 -13 21 -13 16 0 19 4 14 21 -5 15 -4
19 4 15 6 -4 11 -14 11 -22 0 -18 96 -20 103 -1 4 10 6 10 6 0 1 -16 101 -18
101 -3 0 6 7 10 15 10 8 0 15 5 15 10 0 6 -4 10 -10 10 -5 0 -10 5 -10 11 0 5
4 8 9 4 5 -3 12 -1 16 5 6 9 -14 14 -42 11 -7 -1 -13 5 -13 14 0 8 -9 23 -19
32 -24 20 -19 33 12 26 l22 -5 -22 19 c-11 10 -24 33 -28 50 -3 18 -10 35 -15
38 -4 3 -6 -5 -4 -17 l5 -23 -12 22 c-6 12 -21 23 -32 25 -11 2 -22 9 -25 17
-3 10 4 12 29 7 30 -5 32 -5 12 6 -27 13 -28 23 -8 62 19 36 19 40 -1 32 -8
-3 -13 -2 -10 3 3 5 -1 12 -10 15 -10 4 -13 13 -9 26 5 14 2 20 -9 20 -9 0
-16 -4 -16 -10 0 -5 -9 -19 -19 -29 -18 -18 -20 -18 -25 -3 -8 28 -2 65 12 70
6 2 12 -4 12 -13 0 -12 4 -14 19 -6 10 6 20 8 23 6 2 -2 4 4 4 15 0 14 -3 16
-13 8 -10 -8 -13 -6 -13 6 0 9 -4 16 -9 16 -5 0 -11 9 -14 19 -3 14 -1 18 9
14 8 -3 14 0 14 6 0 7 -8 15 -17 18 -18 6 -33 22 -33 34 0 4 10 9 22 12 20 6
21 7 6 24 -9 10 -23 34 -31 53 -14 31 -15 32 -16 11 -1 -19 -4 -22 -12 -14 -6
6 -18 9 -26 6 -7 -3 -13 -1 -11 5 2 6 -3 19 -11 30 -7 11 -28 46 -45 78 -30
56 -33 58 -71 59 -34 0 -40 -3 -38 -20 1 -18 1 -18 -15 2 -11 15 -21 20 -31
14z m261 -196 c4 0 17 -11 30 -24 20 -22 20 -24 3 -17 -22 8 -25 9 -42 7 -8
-1 -9 -10 -3 -32 5 -18 6 -29 2 -25 -11 11 -31 89 -26 98 3 5 11 5 17 1 7 -4
15 -8 19 -8z m24 -132 c-3 -8 -6 -21 -6 -29 0 -8 -5 -14 -10 -14 -6 0 -8 11
-4 25 4 15 2 25 -5 25 -6 0 -11 4 -11 9 0 5 9 7 21 4 12 -4 18 -11 15 -20z
m28 -172 c12 -13 14 -24 7 -42 -9 -23 -9 -23 -16 -4 -4 11 -11 30 -16 43 -10
27 2 29 25 3z m19 -81 c-3 -11 -9 -20 -14 -20 -14 0 -11 28 4 33 6 3 13 6 14
6 0 1 -1 -8 -4 -19z m37 -130 c0 -5 -4 -10 -10 -10 -5 0 -10 5 -10 10 0 6 5
10 10 10 6 0 10 -4 10 -10z m0 -36 c0 -8 -4 -12 -10 -9 -5 3 -10 10 -10 16 0
5 5 9 10 9 6 0 10 -7 10 -16z"/>
<path d="M816 834 c-4 -11 0 -28 11 -43 10 -15 27 -43 38 -63 31 -59 37 -33 7
30 -15 31 -33 65 -38 76 -11 17 -11 17 -18 0z"/>
<path d="M90 825 c0 -5 5 -17 10 -25 5 -8 10 -10 10 -5 0 6 -5 17 -10 25 -5 8
-10 11 -10 5z"/>
<path d="M1466 762 c1 -20 4 -44 7 -52 3 -8 8 -33 11 -55 4 -28 15 -49 37 -68
17 -16 33 -27 35 -25 11 12 -73 238 -89 238 -1 0 -2 -17 -1 -38z"/>
<path d="M908 763 c5 -21 7 -23 10 -9 2 10 0 22 -6 28 -6 6 -7 0 -4 -19z"/>
<path d="M1603 778 c-6 -7 -10 -30 -10 -51 0 -21 -5 -42 -12 -47 -10 -6 -9
-20 5 -70 9 -34 22 -64 28 -66 6 -2 12 -36 14 -77 3 -88 16 -123 48 -131 29
-8 32 -36 3 -43 -23 -6 -23 -17 1 -196 l14 -97 123 0 c68 0 123 2 123 5 0 8
-70 186 -93 235 -11 25 -24 54 -28 65 -22 59 -64 152 -74 165 -28 37 -55 93
-55 116 0 13 -4 24 -9 24 -4 0 -13 24 -19 53 -10 49 -38 127 -46 127 -2 0 -8
-6 -13 -12z"/>
<path d="M102 694 c1 -36 6 -67 10 -70 4 -3 17 5 30 18 14 14 17 23 10 26 -7
2 -12 16 -12 30 -1 26 -20 62 -34 62 -4 0 -6 -30 -4 -66z"/>
<path d="M1257 743 c-3 -5 -2 -15 2 -22 7 -10 10 -10 16 -1 4 6 3 16 -3 22 -5
5 -12 6 -15 1z"/>
<path d="M1393 736 c4 -14 47 -21 47 -8 0 5 -11 12 -25 15 -16 3 -24 0 -22 -7z"/>
<path d="M115 611 c-3 -5 2 -17 11 -25 21 -21 22 -20 16 9 -4 25 -16 32 -27
16z"/>
<path d="M2192 570 c3 -16 1 -30 -4 -30 -5 0 -7 -4 -4 -9 4 -5 1 -22 -6 -38
-6 -15 -13 -35 -14 -43 -1 -8 -9 -34 -18 -58 -8 -23 -13 -49 -10 -57 4 -9 0
-15 -10 -15 -19 0 -21 -11 -4 -28 9 -9 9 -12 0 -12 -7 0 -12 -9 -12 -20 0 -10
-7 -23 -16 -28 -11 -6 -15 -17 -11 -31 3 -11 1 -21 -4 -21 -5 0 -9 -11 -9 -25
0 -13 -7 -28 -16 -33 -11 -6 -15 -17 -11 -31 4 -16 1 -21 -14 -21 -18 0 -39
-34 -39 -61 0 -5 79 -9 190 -9 l190 0 0 198 0 198 -30 32 c-16 18 -35 30 -41
27 -6 -5 -9 0 -7 11 1 11 -5 30 -14 43 l-17 24 -10 -26 c-11 -28 -51 -39 -51
-14 0 29 13 57 26 57 20 0 17 10 -8 31 -28 25 -31 24 -26 -11z m-42 -385 c0
-8 -7 -15 -15 -15 -9 0 -12 6 -9 15 4 8 10 15 15 15 5 0 9 -7 9 -15z"/>
<path d="M895 550 c3 -5 8 -10 11 -10 2 0 4 5 4 10 0 6 -5 10 -11 10 -5 0 -7
-4 -4 -10z"/>
<path d="M1517 473 c11 -79 19 -98 47 -111 15 -8 30 -12 33 -9 2 3 0 30 -7 61
-9 42 -18 60 -40 76 -38 27 -40 26 -33 -17z"/>
<path d="M1035 490 c3 -5 8 -10 11 -10 2 0 4 5 4 10 0 6 -5 10 -11 10 -5 0 -7
-4 -4 -10z"/>
<path d="M1047 453 c10 -27 33 -59 33 -46 0 18 -22 63 -31 63 -5 0 -6 -8 -2
-17z"/>
<path d="M2097 414 c-4 -4 -7 -17 -7 -28 1 -19 1 -20 11 -3 11 19 8 43 -4 31z"/>
<path d="M1026 375 c9 -49 26 -99 37 -113 6 -7 12 -27 14 -44 2 -16 13 -44 25
-61 l22 -32 -27 24 c-34 31 -36 14 -7 -59 11 -28 20 -60 20 -70 0 -17 7 -20
43 -20 l42 0 0 39 c0 22 -3 37 -7 35 -4 -3 -5 10 -3 28 4 24 3 28 -3 13 -7
-16 -23 8 -85 135 -42 85 -74 142 -71 125z"/>
<path d="M0 196 l0 -196 44 0 c43 0 43 0 56 47 7 27 17 53 21 58 14 19 25 110
17 141 -5 19 -32 51 -73 88 l-65 57 0 -195z"/>
<path d="M266 373 c6 -4 14 -15 17 -23 5 -11 6 -9 4 4 -1 11 -9 21 -17 23 -10
3 -11 2 -4 -4z"/>
<path d="M1110 324 c1 -12 25 -44 34 -44 3 0 6 12 5 28 0 15 -3 21 -6 14 -4
-10 -8 -10 -19 -1 -8 6 -14 8 -14 3z"/>
<path d="M1554 278 c6 -40 32 -150 57 -240 6 -23 16 -38 25 -38 17 0 16 16 -8
199 -11 85 -30 121 -64 121 -14 0 -15 -7 -10 -42z"/>
<path d="M176 188 c-4 -23 -11 -47 -17 -54 -5 -7 -9 -16 -8 -20 1 -5 0 -16 -3
-24 -3 -8 -10 -32 -16 -52 l-10 -38 38 0 c21 0 41 6 44 13 5 9 7 9 12 0 3 -7
10 -13 15 -13 13 0 11 67 -2 75 -6 4 -9 0 -7 -10 2 -10 -3 -20 -9 -22 -10 -4
-10 4 1 34 27 78 26 106 -4 130 l-28 22 -6 -41z"/>
<path d="M255 158 c5 -15 13 -89 14 -130 1 -21 6 -28 21 -28 11 0 20 7 20 15
0 10 10 15 29 15 16 0 35 7 42 16 12 14 7 21 -31 54 -57 49 -101 76 -95 58z"/>
<path d="M407 23 c-16 -15 -5 -23 31 -23 l37 1 -25 14 c-29 16 -34 17 -43 8z"/>
</g>
</svg>
