<?xml version="1.0" standalone="no"?>
<!DOCTYPE svg PUBLIC "-//W3C//DTD SVG 20010904//EN"
 "http://www.w3.org/TR/2001/REC-SVG-20010904/DTD/svg10.dtd">
<svg version="1.0" xmlns="http://www.w3.org/2000/svg"
 width="237.000000pt" height="237.000000pt" viewBox="0 0 237.000000 237.000000"
 preserveAspectRatio="xMidYMid meet">
<metadata>
Created by potrace 1.15, written by Peter Selinger 2001-2017
</metadata>
<g transform="translate(0.000000,237.000000) scale(0.100000,-0.100000)"
fill="#000000" stroke="none">
<path d="M0 1185 l0 -1185 533 0 532 1 19 25 c20 29 18 58 -15 204 -27 115
-29 121 -39 115 -5 -3 -16 2 -24 11 -17 17 -23 118 -8 142 5 7 -11 94 -36 203
-24 104 -42 192 -39 195 2 3 23 -5 45 -16 45 -23 59 -57 47 -110 -4 -19 -3
-30 4 -30 6 0 11 10 12 23 0 14 5 6 14 -22 7 -24 11 -49 9 -55 -3 -7 2 -25 10
-41 11 -21 12 -32 4 -42 -8 -10 -6 -13 10 -13 13 0 22 -8 25 -22 l4 -23 2 23
c1 26 21 30 21 4 0 -10 7 -28 16 -40 10 -14 11 -22 3 -22 -6 0 -9 -7 -5 -15 3
-10 -1 -15 -13 -15 -16 0 -17 -4 -8 -45 6 -25 15 -45 20 -45 5 0 7 -7 4 -15
-4 -8 -2 -17 4 -20 5 -4 7 -10 4 -15 -3 -4 6 -32 19 -61 12 -30 24 -71 24 -93
1 -21 6 -43 10 -50 15 -18 36 -89 34 -113 l-2 -23 565 0 565 0 0 1185 0 1185
-944 0 c-680 0 -947 -3 -952 -11 -4 -8 0 -9 15 -4 21 6 30 -8 11 -20 -6 -3
-10 -11 -10 -17 0 -7 5 -6 14 1 12 10 17 3 27 -49 6 -33 15 -63 19 -65 5 -3 6
4 3 15 -3 11 -1 20 5 20 11 0 16 -13 27 -70 4 -19 13 -42 20 -50 7 -8 17 -44
23 -79 8 -42 19 -71 34 -86 37 -37 45 -50 40 -64 -3 -10 2 -11 19 -6 13 4 26
11 29 15 7 9 70 30 70 23 0 -3 6 0 14 6 8 7 17 8 20 3 3 -5 17 -7 31 -4 21 4
24 1 18 -13 -5 -13 -3 -16 7 -10 8 5 11 3 8 -6 -3 -8 -15 -13 -27 -12 -11 2
-21 -3 -21 -10 0 -7 -9 -18 -20 -25 -11 -7 -20 -19 -20 -28 0 -12 5 -10 20 7
10 13 19 20 20 15 0 -6 7 -1 15 10 13 17 14 17 15 2 0 -10 -15 -32 -32 -50
-18 -19 -34 -45 -36 -58 -5 -47 -11 -55 -27 -34 -13 18 -14 16 -15 -19 0 -27
-8 -45 -28 -66 -15 -17 -34 -52 -41 -80 -7 -28 -17 -54 -22 -57 -6 -3 -21 -24
-35 -46 -19 -30 -28 -37 -38 -29 -10 9 -15 6 -19 -10 -4 -14 -10 -18 -19 -14
-10 6 -10 5 -1 -5 10 -11 15 -11 28 0 9 8 15 8 15 2 0 -6 -4 -13 -9 -16 -4 -3
-6 -17 -3 -31 2 -15 0 -25 -7 -25 -21 0 -81 -74 -75 -92 6 -20 -12 -25 -19 -5
-3 6 -17 -14 -31 -45 -15 -32 -31 -60 -36 -63 -4 -3 3 17 16 45 13 27 24 57
24 65 0 8 4 15 9 15 5 0 11 7 15 15 3 8 1 15 -4 15 -5 0 -30 -43 -56 -95 -26
-52 -49 -93 -51 -92 -2 2 15 44 38 92 43 94 47 124 34 243 -12 99 12 190 81
315 8 15 19 27 25 27 5 0 9 6 9 14 0 8 11 23 25 33 l25 18 -29 87 c-16 48 -36
102 -44 120 -8 18 -22 53 -32 78 -32 81 -56 134 -88 198 l-31 62 -208 0 -208
0 0 -1185z m660 845 c0 -5 -2 -10 -4 -10 -3 0 -8 5 -11 10 -3 6 -1 10 4 10 6
0 11 -4 11 -10z m630 -230 c0 -5 -7 -10 -15 -10 -8 0 -15 5 -15 10 0 6 7 10
15 10 8 0 15 -4 15 -10z m-395 -19 c-3 -6 -11 -11 -17 -11 -6 0 -6 6 2 15 14
17 26 13 15 -4z m354 1 c9 -9 4 -11 -25 -6 -25 4 -39 1 -45 -8 -7 -10 -9 -10
-9 0 0 6 -7 12 -16 12 -8 0 -13 4 -9 10 8 13 90 7 104 -8z m104 6 c34 -16 35
-28 1 -28 -23 0 -54 20 -54 34 0 10 24 7 53 -6z m54 6 c-3 -3 -12 -4 -19 -1
-8 3 -5 6 6 6 11 1 17 -2 13 -5z m33 -28 c0 -9 -30 -14 -35 -6 -4 6 3 10 14
10 12 0 21 -2 21 -4z m80 -8 c0 -4 -15 -8 -32 -8 -20 0 -28 3 -21 8 16 10 53
10 53 0z m-650 -8 c0 -5 -4 -10 -10 -10 -5 0 -10 5 -10 10 0 6 5 10 10 10 6 0
10 -4 10 -10z m700 -10 c0 -5 -4 -10 -10 -10 -5 0 -10 5 -10 10 0 6 5 10 10
10 6 0 10 -4 10 -10z m-365 -24 l30 -24 -27 -11 c-14 -5 -41 -28 -59 -50 -26
-33 -39 -41 -64 -41 -20 0 -39 -8 -51 -22 -14 -15 -15 -20 -4 -16 48 17 60 19
60 8 0 -6 -4 -9 -8 -6 -5 3 -23 -8 -40 -23 -17 -16 -33 -26 -36 -23 -3 3 -15
-7 -27 -22 -12 -15 -28 -25 -35 -22 -8 3 -14 2 -14 -2 0 -14 -119 -84 -131
-76 -7 4 -9 3 -6 -3 3 -5 -7 -17 -24 -27 -34 -20 -37 -14 -9 21 11 14 20 31
20 37 0 6 -8 -1 -18 -16 -23 -38 -36 -35 -17 3 9 16 26 34 38 39 12 5 16 9 8
9 -8 1 5 19 29 41 23 21 40 45 37 52 -2 7 6 21 19 31 27 20 30 16 12 -13 -10
-16 -10 -22 0 -32 8 -7 12 -8 10 -3 -2 6 1 11 6 12 5 0 13 8 17 15 4 8 26 20
47 27 39 13 39 14 37 61 -2 26 0 52 4 57 33 49 145 60 196 19z m442 -12 c-7
-7 -57 15 -57 25 0 5 14 3 31 -6 16 -8 28 -17 26 -19z m-729 -11 c-10 -37 -27
-67 -34 -60 -9 9 29 97 41 97 2 0 -1 -17 -7 -37z m416 -74 c-3 -5 -10 -7 -15
-3 -5 3 -7 10 -3 15 3 5 10 7 15 3 5 -3 7 -10 3 -15z m-497 -11 c-3 -8 -6 -5
-6 6 -1 11 2 17 5 13 3 -3 4 -12 1 -19z m603 -12 c0 -2 -9 -6 -20 -9 -11 -3
-18 -2 -15 3 3 4 -2 10 -10 14 -8 3 -15 10 -15 16 0 6 12 4 30 -5 17 -9 30
-17 30 -19z m-325 -66 c-3 -5 -10 -10 -16 -10 -5 0 -9 5 -9 10 0 6 7 10 16 10
8 0 12 -4 9 -10z m425 -49 c0 -10 -40 -19 -58 -13 -25 8 -11 22 23 22 19 0 35
-4 35 -9z m-537 -26 c-3 -9 -8 -14 -10 -11 -3 3 -2 9 2 15 9 16 15 13 8 -4z
m51 3 c-5 -7 -2 -9 8 -5 14 5 14 -3 -3 -61 -10 -37 -17 -73 -14 -79 2 -7 -3
-13 -13 -14 -11 0 -12 -2 -4 -6 9 -4 10 -8 2 -18 -8 -9 -8 -15 0 -20 16 -10
12 -38 -4 -32 -10 4 -13 1 -9 -9 4 -10 0 -12 -11 -8 -14 6 -17 1 -15 -23 0 -5
7 -7 15 -5 9 2 22 -2 30 -9 8 -6 14 -8 14 -5 0 4 9 2 20 -4 26 -14 15 -33 -14
-26 -27 7 -42 -4 -41 -28 0 -11 -6 -21 -14 -24 -10 -3 -12 5 -6 38 7 42 7 43
-16 36 -13 -4 -32 -8 -42 -7 -10 0 -16 -6 -14 -12 2 -7 13 -11 24 -9 25 4 37
-32 17 -49 -10 -8 -14 -8 -14 0 0 8 -6 8 -20 -1 -24 -15 -31 -8 -53 49 -18 46
-13 76 20 108 17 18 17 19 -1 12 -14 -5 -17 -4 -12 8 3 8 0 15 -7 15 -18 0
-149 -29 -154 -34 -2 -2 5 -24 17 -48 l21 -43 -26 33 c-18 21 -33 31 -43 27
-12 -4 -13 -3 -2 10 11 13 10 14 -4 9 -45 -17 12 60 78 105 67 46 204 114 219
108 7 -3 24 4 38 14 27 21 44 25 33 7z m180 -4 c19 -18 20 -26 4 -42 -17 -17
-53 5 -37 24 9 11 9 14 0 14 -7 0 -9 5 -6 10 9 14 21 12 39 -6z m152 -22 c6
-4 14 -24 18 -44 6 -33 4 -39 -27 -62 -19 -14 -45 -26 -58 -26 -14 0 -33 -6
-44 -14 -30 -20 -65 -29 -65 -16 0 6 8 13 18 16 16 5 81 35 92 42 2 2 -2 7
-10 12 -11 7 -12 10 -2 10 7 0 11 4 7 9 -3 5 -1 12 5 16 5 3 10 15 10 25 0 10
8 24 18 29 21 12 24 13 38 3z m-221 -32 c0 -29 30 -77 38 -60 3 6 4 5 3 -2 -1
-7 -16 -13 -32 -13 -23 0 -28 4 -26 20 2 17 1 17 -8 5 -9 -13 -12 -13 -25 4
-7 10 -18 15 -24 11 -6 -3 -11 -1 -11 6 0 6 8 9 20 6 18 -5 25 3 21 25 0 4 6
5 14 2 18 -7 20 12 3 20 -7 3 -4 5 7 3 13 -1 19 -10 20 -27z m-495 -30 c0 -5
-5 -10 -11 -10 -5 0 -7 5 -4 10 3 6 8 10 11 10 2 0 4 -4 4 -10z m-80 -99 c-6
-12 -15 -21 -21 -21 -5 0 -2 11 7 25 20 30 31 26 14 -4z m560 25 c0 -3 -4 -8
-10 -11 -5 -3 -10 -1 -10 4 0 6 5 11 10 11 6 0 10 -2 10 -4z m40 -41 c0 -19
-30 -27 -36 -10 -4 8 -10 12 -15 9 -5 -3 -9 -1 -9 5 0 11 29 19 48 13 6 -2 12
-10 12 -17z m91 -61 l24 -26 -25 7 c-24 7 -40 22 -40 38 0 14 17 6 41 -19z
m-161 -94 c0 -5 -4 -10 -10 -10 -5 0 -10 5 -10 10 0 6 5 10 10 10 6 0 10 -4
10 -10z m-112 -62 c10 -10 15 -10 22 2 5 8 11 12 14 10 10 -11 -21 -37 -51
-43 -26 -5 -35 -2 -43 13 -8 15 -6 19 13 23 12 2 24 5 28 6 3 0 11 -5 17 -11z
m2 -79 c0 -6 -4 -7 -10 -4 -5 3 -10 11 -10 16 0 6 5 7 10 4 6 -3 10 -11 10
-16z m-697 -79 c-30 -68 -43 -75 -17 -9 16 41 32 69 39 69 2 0 -8 -27 -22 -60z
m567 46 c0 -3 -4 -8 -10 -11 -5 -3 -10 -1 -10 4 0 6 5 11 10 11 6 0 10 -2 10
-4z m-620 -183 c-26 -65 -46 -94 -36 -51 10 42 46 121 53 115 3 -4 -5 -32 -17
-64z m1083 29 c15 -10 25 -21 22 -24 -3 -3 1 -11 10 -18 22 -18 19 -35 -22
-119 -24 -50 -38 -69 -40 -56 -5 43 -8 235 -3 235 3 0 17 -8 33 -18z m-96
-224 c-28 -35 -55 -53 -64 -44 -8 8 7 26 21 26 8 0 16 12 19 28 9 51 15 70 29
91 12 20 13 19 19 -21 5 -37 2 -48 -24 -80z"/>
<path d="M661 1904 c0 -11 3 -14 6 -6 3 7 2 16 -1 19 -3 4 -6 -2 -5 -13z"/>
<path d="M755 1880 c-3 -5 -1 -10 4 -10 6 0 11 5 11 10 0 6 -2 10 -4 10 -3 0
-8 -4 -11 -10z"/>
<path d="M803 1765 c-3 -9 -3 -18 -1 -21 3 -3 8 4 11 16 6 23 -1 27 -10 5z"/>
<path d="M535 1630 c-3 -6 1 -7 9 -4 18 7 21 14 7 14 -6 0 -13 -4 -16 -10z"/>
<path d="M1065 470 c-10 -11 -14 -20 -9 -20 12 1 44 25 44 34 0 12 -17 6 -35
-14z"/>
</g>
</svg>
